<svg version="1.2" xmlns="http://www.w3.org/2000/svg" viewBox="0 0 1280 251" width="1275" height="250">
	<title>New Project</title>
	<style>
		.s0 { fill: #08083d } 
	</style>
	<g id="font">
		<path id="ORBIT." class="s0" aria-label="ORBIT."  d="m550.4 125.8q0-15.6 6-29.4 6-13.8 16.2-24 10.2-10.4 24-16.4 13.8-6 29.4-6 15.6 0 29.4 6 13.8 6 24 16.4 10.4 10.2 16.4 24 6 13.8 6 29.4 0 15.6-6 29.4-6 13.8-16.4 24.2-10.2 10.2-24 16.2-13.8 6-29.4 6-15.6 0-29.4-6-13.8-6-24-16.2-10.2-10.4-16.2-24.2-6-13.8-6-29.4zm39.6 0q0 7.6 2.8 14.4 2.8 6.8 7.6 12 5 5.2 11.6 8.4 6.6 3 14 3 7.4 0 14-3 6.6-3.2 11.6-8.4 5-5.2 7.8-12 2.8-6.8 2.8-14.4 0-7.4-2.8-14.2-2.8-7-7.8-12-5-5.2-11.6-8.2-6.6-3.2-14-3.2-7.4 0-14 3.2-6.6 3-11.6 8.2-4.8 5-7.6 12-2.8 6.8-2.8 14.2zm167.2 73.2h-29.8q-2 0-3.4-1.4-1.4-1.4-1.4-3.4v-136.8q0-2 1.4-3.4 1.4-1.4 3.4-1.4h62.2q11.6 0 21.4 4 9.8 3.8 16.6 10.8 7 7 10.8 16.6 4 9.6 4 21.2 0 6.4-1.6 12.8-1.4 6.2-4.2 11.8-2.8 5.6-6.6 10.2-3.8 4.4-8.6 7.4-1.6 1.2-2.2 3-0.4 1.6 0.8 3.2 7.6 10 16 20.6 8.4 10.6 15 19.4 1.2 1.6 0.6 3.6-0.6 1.8-2.6 1.8h-37.2q-2 0-4.4-1-2.2-1.2-3.4-2.8-6.4-8.4-12.8-17-6.2-8.6-12.4-17.4-1.2-1.6-3.4-2.6-2.2-1.2-4.2-1.2h-4.4q-2 0-3.4 1.4-1.4 1.4-1.4 3.4v32.4q0 2-1.4 3.4-1.4 1.4-3.4 1.4zm9.6-78.8h21.2q2.4 0 5-0.8 2.6-1 4.8-2.8 2.2-2 3.6-4.8 1.4-2.8 1.4-6.6 0-2-0.8-4.6-0.6-2.8-2.4-5.2-1.6-2.6-4.6-4.2-2.8-1.8-7-1.8h-21.2q-2 0-3.4 1.4-1.4 1.4-1.4 3.4v21.2q0 2 1.4 3.4 1.4 1.4 3.4 1.4zm199.8 3.4q3.2 1.8 6.4 4.4 3.2 2.6 5.8 6.4 2.8 3.8 4.4 8.8 1.8 5 1.8 11.4 0 13-4.2 21.6-4 8.4-11 13.6-7 5-16.2 7.2-9 2-19 2h-63.4q-2 0-3.4-1.4-1.4-1.4-1.4-3.4v-136.8q0-2 1.4-3.4 1.4-1.4 3.4-1.4h60.4q9.6 0 18.4 2.2 8.8 2 15.4 6.8 6.8 4.8 10.8 12.6 4.2 7.6 4.2 18.8 0 9-4.6 15.6-4.4 6.6-9.6 10.4-3.6 2.6 0.4 4.6zm-55.8-15.4h18.6q4 0 6.4-3 2.4-3.2 2.4-7 0-3.6-3-6.2-2.8-2.6-5.4-2.6h-19q-2 0-3.4 1.4-1.4 1.4-1.4 3.4v9.2q0 2 1.4 3.4 1.4 1.4 3.4 1.4zm21 33h-21q-2 0-3.4 1.4-1.4 1.4-1.4 3.4v11.4q0 2 1.4 3.4 1.4 1.4 3.4 1.4h22.4q3.6 0 6.8-3 3.2-3 3.2-7 0-3.6-3.2-7.2-3-3.8-8.2-3.8zm111.4 57.8h-30.2q-2.2 0-3.6-1.4-1.2-1.4-1.2-3.4v-136.6q0-2 1.2-3.4 1.4-1.4 3.6-1.4h30.2q2 0 3.4 1.4 1.4 1.4 1.4 3.4v136.6q0 2-1.4 3.4-1.4 1.4-3.4 1.4zm129.2-109.6h-28q-2 0-3.4 1.4-1.4 1.4-1.4 3.4v100q0 2-1.4 3.4-1.2 1.4-3.4 1.4h-30q-2 0-3.4-1.4-1.4-1.4-1.4-3.4v-100q0-2-1.4-3.4-1.2-1.4-3.4-1.4h-28.4q-2 0-3.4-1.4-1.4-1.4-1.4-3.4v-27.2q0-2 1.4-3.4 1.4-1.4 3.4-1.4h105.6q2.2 0 3.4 1.4 1.4 1.4 1.4 3.4v27.2q0 2-1.4 3.4-1.2 1.4-3.4 1.4zm40 90.4q0 4.2-1.6 8-1.6 3.8-4.4 6.6-2.8 2.8-6.6 4.4-3.8 1.6-8 1.6-4.2 0-8-1.6-3.6-1.6-6.4-4.4-2.8-2.8-4.4-6.6-1.6-3.8-1.6-8 0-4.2 1.6-7.8 1.6-3.6 4.4-6.4 2.8-2.8 6.4-4.4 3.8-1.6 8-1.6 4.2 0 8 1.6 3.8 1.6 6.6 4.4 2.8 2.8 4.4 6.4 1.6 3.6 1.6 7.8z"/>
		<path id="POST" class="s0" aria-label="POST"  d="m66.9 197h16v-52.3h29c27.4 0 49.8-19.6 49.8-43.7 0-25.1-22.4-45.7-49.8-45.7h-45zm45-68l-29-0.1v-57.7h29c18.6 0 33.8 13.3 33.8 29.7 0 15.5-15.2 28.2-33.8 28.1zm134.4 69.9c40.2 0 73-32.7 73-72.6 0-40.2-32.8-73-72.9-73-40 0-72.8 32.8-72.8 73 0 39.9 32.8 72.6 72.7 72.6zm0-16.2c-31.1 0-56.5-25.4-56.5-56.5 0-31.2 25.4-56.8 56.5-56.8 31.3 0 56.8 25.6 56.8 56.8 0 31.1-25.5 56.5-56.8 56.5zm134.6 16.3c27.2 0 49.8-16 49.8-40.4 0-22.8-20.1-32.6-41.4-41.2-18.3-7-33.8-12-33.8-25.8 0-12.6 13-22.6 28.2-22.6 12.7 0 24.2 7.2 28.7 17.8l12.1-8.1c-5.3-14-19.6-25.5-40.6-25.5-24.9 0-44.5 16.3-44.5 38.1 0 21.9 19.4 30.4 36.8 37.2 18.1 6.8 38.4 14.5 38.4 30.4 0 14-15.1 24-33.6 24-15.1 0-29.6-8.1-36-20.2l-12.3 9c6.8 15.1 24.9 27.3 48.2 27.3zm158.5-143.7h-98.2v15.9h41.2v125.8h16v-125.8h41z"/>
	</g>
</svg>